<mxfile host="app.diagrams.net" modified="2024-06-24T11:45:36.555Z" agent="Mozilla/5.0 (Windows NT 10.0; Win64; x64) AppleWebKit/537.36 (KHTML, like Gecko) Chrome/126.0.0.0 Safari/537.36 Edg/126.0.0.0" etag="d1rc7teFY5eetwSDnF24" version="24.5.5" type="device">
  <diagram name="Page-1" id="OwpPxTnq-PRLa5YLK06M">
    <mxGraphModel dx="951" dy="501" grid="1" gridSize="3" guides="1" tooltips="1" connect="1" arrows="1" fold="1" page="1" pageScale="1" pageWidth="850" pageHeight="1100" math="0" shadow="0">
      <root>
        <mxCell id="0" />
        <mxCell id="1" parent="0" />
        <mxCell id="FRKMBVniFG-dgyeSCBkc-2" value="" style="rounded=1;whiteSpace=wrap;html=1;fillColor=#F5F5F5;fontColor=#333333;strokeColor=#3ABFD9;" vertex="1" parent="1">
          <mxGeometry x="72" y="457.5" width="60" height="60" as="geometry" />
        </mxCell>
        <mxCell id="FRKMBVniFG-dgyeSCBkc-5" value="" style="shape=flexArrow;endArrow=classic;html=1;rounded=0;strokeColor=#3ABFD9;fillColor=#F5F5F5;shadow=0;endWidth=5.716603569497026;endSize=1.3983914209115282;width=3.699731903485255;" edge="1" parent="1">
          <mxGeometry width="50" height="50" relative="1" as="geometry">
            <mxPoint x="144" y="490.5" as="sourcePoint" />
            <mxPoint x="162" y="490.5" as="targetPoint" />
          </mxGeometry>
        </mxCell>
        <mxCell id="FRKMBVniFG-dgyeSCBkc-25" value="Input" style="text;html=1;align=center;verticalAlign=middle;resizable=0;points=[];autosize=1;strokeColor=none;fillColor=none;" vertex="1" parent="1">
          <mxGeometry x="76" y="551.5" width="45" height="27" as="geometry" />
        </mxCell>
        <mxCell id="FRKMBVniFG-dgyeSCBkc-26" value="" style="rounded=1;whiteSpace=wrap;html=1;fillColor=#F5F5F5;fontColor=#333333;strokeColor=#3ABFD9;" vertex="1" parent="1">
          <mxGeometry x="194" y="448.5" width="60" height="60" as="geometry" />
        </mxCell>
        <mxCell id="FRKMBVniFG-dgyeSCBkc-27" value="" style="rounded=1;whiteSpace=wrap;html=1;fillColor=#FFFFFF;fontColor=#333333;strokeColor=#3ABFD9;" vertex="1" parent="1">
          <mxGeometry x="188" y="454.5" width="60" height="60" as="geometry" />
        </mxCell>
        <mxCell id="FRKMBVniFG-dgyeSCBkc-28" value="" style="rounded=1;whiteSpace=wrap;html=1;fillColor=#F5F5F5;fontColor=#333333;strokeColor=#3ABFD9;" vertex="1" parent="1">
          <mxGeometry x="180" y="462.5" width="60" height="60" as="geometry" />
        </mxCell>
        <mxCell id="FRKMBVniFG-dgyeSCBkc-29" value="" style="rounded=1;whiteSpace=wrap;html=1;fillColor=#FFFFFF;fontColor=#333333;strokeColor=#3ABFD9;" vertex="1" parent="1">
          <mxGeometry x="172" y="469.5" width="60" height="60" as="geometry" />
        </mxCell>
        <mxCell id="FRKMBVniFG-dgyeSCBkc-31" value="" style="rounded=1;whiteSpace=wrap;html=1;fillColor=#F5F5F5;fontColor=#333333;strokeColor=#3ABFD9;" vertex="1" parent="1">
          <mxGeometry x="307" y="447" width="60" height="60" as="geometry" />
        </mxCell>
        <mxCell id="FRKMBVniFG-dgyeSCBkc-32" value="" style="rounded=1;whiteSpace=wrap;html=1;fillColor=#FFFFFF;fontColor=#333333;strokeColor=#3ABFD9;" vertex="1" parent="1">
          <mxGeometry x="301" y="453" width="60" height="60" as="geometry" />
        </mxCell>
        <mxCell id="FRKMBVniFG-dgyeSCBkc-33" value="" style="rounded=1;whiteSpace=wrap;html=1;fillColor=#F5F5F5;fontColor=#333333;strokeColor=#3ABFD9;" vertex="1" parent="1">
          <mxGeometry x="293" y="461" width="60" height="60" as="geometry" />
        </mxCell>
        <mxCell id="FRKMBVniFG-dgyeSCBkc-34" value="" style="rounded=1;whiteSpace=wrap;html=1;fillColor=#FFFFFF;fontColor=#333333;strokeColor=#3ABFD9;" vertex="1" parent="1">
          <mxGeometry x="285" y="468" width="60" height="60" as="geometry" />
        </mxCell>
        <mxCell id="FRKMBVniFG-dgyeSCBkc-35" value="&lt;div&gt;2 Blocks&lt;/div&gt;&lt;div&gt;64&lt;/div&gt;Time Distributed 2D Conv&lt;div&gt;Relu&lt;/div&gt;&lt;div&gt;MaxPooling&lt;/div&gt;&lt;div&gt;Dropout&lt;/div&gt;" style="text;html=1;align=center;verticalAlign=middle;resizable=0;points=[];autosize=1;strokeColor=none;fillColor=none;" vertex="1" parent="1">
          <mxGeometry x="183" y="551.5" width="156" height="99" as="geometry" />
        </mxCell>
        <mxCell id="FRKMBVniFG-dgyeSCBkc-41" value="" style="endArrow=classic;html=1;rounded=0;entryX=0.891;entryY=0.776;entryDx=0;entryDy=0;exitX=0.938;exitY=0.249;exitDx=0;exitDy=0;exitPerimeter=0;entryPerimeter=0;curved=1;strokeColor=#3ABFD9;" edge="1" parent="1" source="FRKMBVniFG-dgyeSCBkc-42" target="FRKMBVniFG-dgyeSCBkc-42">
          <mxGeometry width="50" height="50" relative="1" as="geometry">
            <mxPoint x="454.99999999999994" y="469.6600000000001" as="sourcePoint" />
            <mxPoint x="455.54000000000013" y="502.1299999999999" as="targetPoint" />
            <Array as="points">
              <mxPoint x="488.42" y="469.5" />
              <mxPoint x="488.42" y="502.5" />
            </Array>
          </mxGeometry>
        </mxCell>
        <mxCell id="FRKMBVniFG-dgyeSCBkc-42" value="" style="ellipse;whiteSpace=wrap;html=1;strokeColor=#3ABFD9;fillColor=#f5f5f5;" vertex="1" parent="1">
          <mxGeometry x="404.00000000000006" y="459" width="57" height="54" as="geometry" />
        </mxCell>
        <mxCell id="FRKMBVniFG-dgyeSCBkc-44" value="&lt;div&gt;100&lt;/div&gt;&lt;div&gt;LSTM&lt;/div&gt;&lt;div&gt;Dropout&lt;/div&gt;" style="text;html=1;align=center;verticalAlign=middle;resizable=0;points=[];autosize=1;strokeColor=none;fillColor=none;" vertex="1" parent="1">
          <mxGeometry x="405" y="551.5" width="63" height="57" as="geometry" />
        </mxCell>
        <mxCell id="FRKMBVniFG-dgyeSCBkc-51" value="" style="shape=flexArrow;endArrow=classic;html=1;rounded=0;strokeColor=#3ABFD9;fillColor=#F5F5F5;shadow=0;endWidth=5.716603569497026;endSize=1.3983914209115282;width=3.699731903485255;" edge="1" parent="1">
          <mxGeometry width="50" height="50" relative="1" as="geometry">
            <mxPoint x="261" y="492.4" as="sourcePoint" />
            <mxPoint x="279" y="492.4" as="targetPoint" />
          </mxGeometry>
        </mxCell>
        <mxCell id="FRKMBVniFG-dgyeSCBkc-52" value="" style="shape=flexArrow;endArrow=classic;html=1;rounded=0;strokeColor=#3ABFD9;fillColor=#F5F5F5;shadow=0;endWidth=5.716603569497026;endSize=1.3983914209115282;width=3.699731903485255;" edge="1" parent="1">
          <mxGeometry width="50" height="50" relative="1" as="geometry">
            <mxPoint x="381" y="490.89" as="sourcePoint" />
            <mxPoint x="399" y="490.89" as="targetPoint" />
          </mxGeometry>
        </mxCell>
        <mxCell id="FRKMBVniFG-dgyeSCBkc-53" value="" style="shape=flexArrow;endArrow=classic;html=1;rounded=0;strokeColor=#3ABFD9;fillColor=#F5F5F5;shadow=0;endWidth=5.716603569497026;endSize=1.3983914209115282;width=3.699731903485255;" edge="1" parent="1">
          <mxGeometry width="50" height="50" relative="1" as="geometry">
            <mxPoint x="498" y="490.88" as="sourcePoint" />
            <mxPoint x="516" y="490.88" as="targetPoint" />
          </mxGeometry>
        </mxCell>
        <mxCell id="FRKMBVniFG-dgyeSCBkc-54" value="" style="shape=flexArrow;endArrow=classic;html=1;rounded=0;strokeColor=#3ABFD9;fillColor=#F5F5F5;shadow=0;endWidth=5.716603569497026;endSize=1.3983914209115282;width=3.699731903485255;" edge="1" parent="1">
          <mxGeometry width="50" height="50" relative="1" as="geometry">
            <mxPoint x="564" y="492.38" as="sourcePoint" />
            <mxPoint x="582" y="492.38" as="targetPoint" />
          </mxGeometry>
        </mxCell>
        <mxCell id="FRKMBVniFG-dgyeSCBkc-55" value="" style="shape=flexArrow;endArrow=classic;html=1;rounded=0;strokeColor=#3ABFD9;fillColor=#F5F5F5;shadow=0;endWidth=5.716603569497026;endSize=1.3983914209115282;width=3.699731903485255;" edge="1" parent="1">
          <mxGeometry width="50" height="50" relative="1" as="geometry">
            <mxPoint x="633" y="492.38" as="sourcePoint" />
            <mxPoint x="651" y="492.38" as="targetPoint" />
          </mxGeometry>
        </mxCell>
        <mxCell id="FRKMBVniFG-dgyeSCBkc-56" value="" style="shape=flexArrow;endArrow=classic;html=1;rounded=0;strokeColor=#3ABFD9;fillColor=#F5F5F5;shadow=0;endWidth=5.716603569497026;endSize=1.3983914209115282;width=3.699731903485255;" edge="1" parent="1">
          <mxGeometry width="50" height="50" relative="1" as="geometry">
            <mxPoint x="702" y="492.42" as="sourcePoint" />
            <mxPoint x="720" y="492.42" as="targetPoint" />
          </mxGeometry>
        </mxCell>
        <mxCell id="FRKMBVniFG-dgyeSCBkc-57" value="&lt;font color=&quot;#ffffff&quot;&gt;Truth&lt;/font&gt;" style="rounded=0;whiteSpace=wrap;html=1;fillColor=#6ec841;strokeColor=none;" vertex="1" parent="1">
          <mxGeometry x="729" y="457.5" width="60" height="30" as="geometry" />
        </mxCell>
        <mxCell id="FRKMBVniFG-dgyeSCBkc-58" value="&lt;font color=&quot;#f5f5f5&quot;&gt;Lie&lt;/font&gt;" style="rounded=0;whiteSpace=wrap;html=1;fillColor=#e64533;strokeColor=none;" vertex="1" parent="1">
          <mxGeometry x="729" y="497.5" width="60" height="30" as="geometry" />
        </mxCell>
        <mxCell id="FRKMBVniFG-dgyeSCBkc-59" value="" style="rounded=1;whiteSpace=wrap;html=1;fillColor=#F5F5F5;fontColor=#333333;strokeColor=#3ABFD9;" vertex="1" parent="1">
          <mxGeometry x="531" y="447" width="24" height="88" as="geometry" />
        </mxCell>
        <mxCell id="FRKMBVniFG-dgyeSCBkc-60" value="" style="rounded=1;whiteSpace=wrap;html=1;fillColor=#F5F5F5;fontColor=#333333;strokeColor=#3ABFD9;" vertex="1" parent="1">
          <mxGeometry x="597" y="447" width="24" height="88" as="geometry" />
        </mxCell>
        <mxCell id="FRKMBVniFG-dgyeSCBkc-61" value="" style="rounded=1;whiteSpace=wrap;html=1;fillColor=#F5F5F5;fontColor=#333333;strokeColor=#3ABFD9;" vertex="1" parent="1">
          <mxGeometry x="666" y="447" width="24" height="88" as="geometry" />
        </mxCell>
        <mxCell id="FRKMBVniFG-dgyeSCBkc-62" value="&lt;div&gt;500&lt;/div&gt;&lt;div&gt;Relu&amp;nbsp;&lt;/div&gt;&lt;div&gt;Dropout&lt;/div&gt;" style="text;html=1;align=center;verticalAlign=middle;resizable=0;points=[];autosize=1;strokeColor=none;fillColor=none;" vertex="1" parent="1">
          <mxGeometry x="511.5" y="551.5" width="63" height="57" as="geometry" />
        </mxCell>
        <mxCell id="FRKMBVniFG-dgyeSCBkc-63" value="&lt;div&gt;100&lt;/div&gt;&lt;div&gt;Relu&amp;nbsp;&lt;/div&gt;&lt;div&gt;Dropout&lt;/div&gt;" style="text;html=1;align=center;verticalAlign=middle;resizable=0;points=[];autosize=1;strokeColor=none;fillColor=none;" vertex="1" parent="1">
          <mxGeometry x="577.5" y="552.5" width="63" height="57" as="geometry" />
        </mxCell>
        <mxCell id="FRKMBVniFG-dgyeSCBkc-64" value="&lt;div&gt;1&lt;/div&gt;&lt;div&gt;Sigmoid&lt;/div&gt;" style="text;html=1;align=center;verticalAlign=middle;resizable=0;points=[];autosize=1;strokeColor=none;fillColor=none;" vertex="1" parent="1">
          <mxGeometry x="645" y="555" width="63" height="42" as="geometry" />
        </mxCell>
      </root>
    </mxGraphModel>
  </diagram>
</mxfile>
